# xmcd
#
# Track frame offsets: 
#        150
#        69975
#        85960
#        106397
#        114947
#        130650
#        155972
#        182850
#        198160
#        211622
#        218867
#        235725
#        250800
#
# Disc length: 4271 seconds
#
# Revision: 0
# Processed by: cddbd v1.5.2PL0 Copyright (c) Steve Scherf et al.
# Submitted via: ExactAudioCopy v1.0b2
#
DISCID=af10ad0d
DTITLE=Bernd Glemser - Bach - Piano Transcriptions
DYEAR=2006
DGENRE=Classical
TTITLE0=Violin Partita No. 2 in D minor, BWV 1004: V. Chaconne (arr. F
TTITLE0=Busoni)
TTITLE1=6 Schubler Chorales, BWV 645-650 (arr. F. Busoni): Wachet auf,
TTITLE1=ruft uns die Stimme, BWV 645 (arr. F. Busoni)
TTITLE2=Nun komm der Heiden Heiland, BWV 659 (arr. F. Busoni)
TTITLE3=Nun freut euch, lieben Christen g'mein, BWV 388 (arr. F. Buson
TTITLE3=i)
TTITLE4=Ich ruf zu dir, Herr Jesu Christ, BWV 639 (arr. F. Busoni)
TTITLE5=Prelude and Fugue in D major, BWV 532 (arr. F. Busoni): Prelud
TTITLE5=e
TTITLE6=Prelude and Fugue in D major, BWV 532 (arr. F. Busoni): Fugue
TTITLE7=Violin Partita No. 3 in E major, BWV 1006 (arr. S. Rachmaninov
TTITLE7=): I. Prelude
TTITLE8=Violin Partita No. 3 in E major, BWV 1006 (arr. S. Rachmaninov
TTITLE8=): III. Gavotte
TTITLE9=Violin Partita No. 3 in E major, BWV 1006 (arr. S. Rachmaninov
TTITLE9=): VII. Gigue
TTITLE10=Flute Sonata in E flat major, BWV 1031: II. Siciliano (arr. W
TTITLE10=Kempff)
TTITLE11=Herz und Mund und Tat und Leben, BWV 147: Choral: Jesu bleibe
TTITLE11=t meine Freude (Jesu, joy of man's desiring) (arr. M. Hess)
TTITLE12=Prelude and Fugue in E flat major, BWV 552, "St. Anne" (arr. 
TTITLE12=F. Busoni)
EXTD=
EXTT0=
EXTT1=
EXTT2=
EXTT3=
EXTT4=
EXTT5=
EXTT6=
EXTT7=
EXTT8=
EXTT9=
EXTT10=
EXTT11=
EXTT12=
PLAYORDER=
